<?xml version="1.0" encoding="UTF-8"?>
<svg width="800" height="600" viewBox="0 0 800 600" fill="none" xmlns="http://www.w3.org/2000/svg">
  <path d="M50 500 L750 500" stroke="#E5E7EB" stroke-width="2"/>
  <!-- Base platform -->
  <rect x="200" y="200" width="400" height="300" rx="20" fill="#3B82F6" opacity="0.1"/>
  
  <!-- Data visualization elements -->
  <path d="M300 350 Q400 200 500 350" stroke="#3B82F6" stroke-width="4" fill="none"/>
  <path d="M300 400 Q400 250 500 400" stroke="#EC4899" stroke-width="4" fill="none" opacity="0.6"/>
  
  <!-- Floating blocks -->
  <rect x="250" y="150" width="60" height="100" rx="5" fill="#3B82F6" opacity="0.2"/>
  <rect x="350" y="120" width="60" height="130" rx="5" fill="#3B82F6" opacity="0.2"/>
  <rect x="450" y="170" width="60" height="80" rx="5" fill="#3B82F6" opacity="0.2"/>
  
  <!-- People working -->
  <circle cx="280" cy="450" r="20" fill="#3B82F6"/>
  <rect x="260" y="480" width="40" height="20" rx="5" fill="#3B82F6"/>
  
  <circle cx="380" cy="450" r="20" fill="#3B82F6"/>
  <rect x="360" y="480" width="40" height="20" rx="5" fill="#3B82F6"/>
  
  <!-- Laptops -->
  <rect x="250" y="420" width="60" height="40" rx="5" fill="#60A5FA"/>
  <rect x="350" y="420" width="60" height="40" rx="5" fill="#60A5FA"/>
  
  <!-- Floating elements -->
  <circle cx="150" cy="150" r="30" fill="#E5E7EB" opacity="0.5"/>
  <circle cx="650" cy="150" r="30" fill="#E5E7EB" opacity="0.5"/>
  <circle cx="150" cy="450" r="30" fill="#E5E7EB" opacity="0.5"/>
  <circle cx="650" cy="450" r="30" fill="#E5E7EB" opacity="0.5"/>
</svg> 